<mxfile host="app.diagrams.net" modified="2023-06-27T12:18:24.846Z" agent="Mozilla/5.0 (Windows NT 10.0; Win64; x64) AppleWebKit/537.36 (KHTML, like Gecko) Chrome/114.0.0.0 Safari/537.36" etag="AEMwcK8t74uOJeO5tYUp" version="21.5.0" type="github">
  <diagram name="Page-1" id="94GVjBLA2X0K4gFDKRRZ">
    <mxGraphModel dx="1968" dy="670" grid="1" gridSize="10" guides="1" tooltips="1" connect="1" arrows="1" fold="1" page="1" pageScale="1" pageWidth="850" pageHeight="1100" math="0" shadow="0">
      <root>
        <mxCell id="0" />
        <mxCell id="1" parent="0" />
        <mxCell id="6mtPISPLq_UKG5OA48RJ-3" style="edgeStyle=orthogonalEdgeStyle;rounded=0;orthogonalLoop=1;jettySize=auto;html=1;exitX=0.5;exitY=1;exitDx=0;exitDy=0;entryX=0.5;entryY=0;entryDx=0;entryDy=0;" edge="1" parent="1" source="6mtPISPLq_UKG5OA48RJ-1" target="6mtPISPLq_UKG5OA48RJ-2">
          <mxGeometry relative="1" as="geometry" />
        </mxCell>
        <mxCell id="6mtPISPLq_UKG5OA48RJ-1" value="Thrift/TableManagementService" style="html=1;whiteSpace=wrap;" vertex="1" parent="1">
          <mxGeometry x="60" y="270" width="240" height="50" as="geometry" />
        </mxCell>
        <mxCell id="6mtPISPLq_UKG5OA48RJ-8" style="edgeStyle=orthogonalEdgeStyle;rounded=0;orthogonalLoop=1;jettySize=auto;html=1;exitX=0.5;exitY=1;exitDx=0;exitDy=0;entryX=0.25;entryY=0;entryDx=0;entryDy=0;" edge="1" parent="1" source="6mtPISPLq_UKG5OA48RJ-2" target="6mtPISPLq_UKG5OA48RJ-4">
          <mxGeometry relative="1" as="geometry" />
        </mxCell>
        <mxCell id="6mtPISPLq_UKG5OA48RJ-17" style="edgeStyle=orthogonalEdgeStyle;rounded=0;orthogonalLoop=1;jettySize=auto;html=1;exitX=0.25;exitY=1;exitDx=0;exitDy=0;strokeColor=#FF1C95;" edge="1" parent="1" source="6mtPISPLq_UKG5OA48RJ-2" target="6mtPISPLq_UKG5OA48RJ-16">
          <mxGeometry relative="1" as="geometry" />
        </mxCell>
        <mxCell id="6mtPISPLq_UKG5OA48RJ-2" value="TableService" style="html=1;whiteSpace=wrap;" vertex="1" parent="1">
          <mxGeometry x="110" y="450" width="220" height="50" as="geometry" />
        </mxCell>
        <mxCell id="6mtPISPLq_UKG5OA48RJ-11" style="edgeStyle=orthogonalEdgeStyle;rounded=0;orthogonalLoop=1;jettySize=auto;html=1;exitX=0.75;exitY=0;exitDx=0;exitDy=0;entryX=0.25;entryY=1;entryDx=0;entryDy=0;" edge="1" parent="1" source="6mtPISPLq_UKG5OA48RJ-4" target="6mtPISPLq_UKG5OA48RJ-6">
          <mxGeometry relative="1" as="geometry" />
        </mxCell>
        <mxCell id="6mtPISPLq_UKG5OA48RJ-14" value="loadTable" style="edgeLabel;html=1;align=center;verticalAlign=middle;resizable=0;points=[];" vertex="1" connectable="0" parent="6mtPISPLq_UKG5OA48RJ-11">
          <mxGeometry x="-0.1502" y="-1" relative="1" as="geometry">
            <mxPoint as="offset" />
          </mxGeometry>
        </mxCell>
        <mxCell id="6mtPISPLq_UKG5OA48RJ-12" style="edgeStyle=orthogonalEdgeStyle;rounded=0;orthogonalLoop=1;jettySize=auto;html=1;exitX=0.5;exitY=1;exitDx=0;exitDy=0;entryX=0.5;entryY=0;entryDx=0;entryDy=0;" edge="1" parent="1" source="6mtPISPLq_UKG5OA48RJ-4" target="6mtPISPLq_UKG5OA48RJ-7">
          <mxGeometry relative="1" as="geometry" />
        </mxCell>
        <mxCell id="6mtPISPLq_UKG5OA48RJ-18" style="edgeStyle=orthogonalEdgeStyle;rounded=0;orthogonalLoop=1;jettySize=auto;html=1;exitX=0;exitY=0.5;exitDx=0;exitDy=0;entryX=1;entryY=0.5;entryDx=0;entryDy=0;strokeColor=#FF1C95;" edge="1" parent="1" source="6mtPISPLq_UKG5OA48RJ-4" target="6mtPISPLq_UKG5OA48RJ-16">
          <mxGeometry relative="1" as="geometry" />
        </mxCell>
        <mxCell id="6mtPISPLq_UKG5OA48RJ-4" value="InternalCatalog" style="html=1;whiteSpace=wrap;" vertex="1" parent="1">
          <mxGeometry x="260" y="590" width="260" height="50" as="geometry" />
        </mxCell>
        <mxCell id="6mtPISPLq_UKG5OA48RJ-9" style="edgeStyle=orthogonalEdgeStyle;rounded=0;orthogonalLoop=1;jettySize=auto;html=1;exitX=0.5;exitY=1;exitDx=0;exitDy=0;" edge="1" parent="1" source="6mtPISPLq_UKG5OA48RJ-5" target="6mtPISPLq_UKG5OA48RJ-6">
          <mxGeometry relative="1" as="geometry" />
        </mxCell>
        <mxCell id="6mtPISPLq_UKG5OA48RJ-15" value="loadTable/commitTable" style="edgeLabel;html=1;align=center;verticalAlign=middle;resizable=0;points=[];" vertex="1" connectable="0" parent="6mtPISPLq_UKG5OA48RJ-9">
          <mxGeometry x="-0.2947" y="1" relative="1" as="geometry">
            <mxPoint as="offset" />
          </mxGeometry>
        </mxCell>
        <mxCell id="6mtPISPLq_UKG5OA48RJ-5" value="HTTP/IcebergRestCatalogAPI" style="html=1;whiteSpace=wrap;" vertex="1" parent="1">
          <mxGeometry x="500" y="270" width="250" height="50" as="geometry" />
        </mxCell>
        <mxCell id="6mtPISPLq_UKG5OA48RJ-10" style="edgeStyle=orthogonalEdgeStyle;rounded=0;orthogonalLoop=1;jettySize=auto;html=1;exitX=0;exitY=0.5;exitDx=0;exitDy=0;entryX=1;entryY=0.5;entryDx=0;entryDy=0;strokeColor=#FF1C95;" edge="1" parent="1" source="6mtPISPLq_UKG5OA48RJ-6" target="6mtPISPLq_UKG5OA48RJ-2">
          <mxGeometry relative="1" as="geometry" />
        </mxCell>
        <mxCell id="6mtPISPLq_UKG5OA48RJ-19" style="edgeStyle=orthogonalEdgeStyle;rounded=0;orthogonalLoop=1;jettySize=auto;html=1;exitX=0.75;exitY=1;exitDx=0;exitDy=0;entryX=0.5;entryY=1;entryDx=0;entryDy=0;strokeColor=#FF1C95;" edge="1" parent="1" source="6mtPISPLq_UKG5OA48RJ-6" target="6mtPISPLq_UKG5OA48RJ-16">
          <mxGeometry relative="1" as="geometry">
            <Array as="points">
              <mxPoint x="738" y="840" />
              <mxPoint x="10" y="840" />
            </Array>
          </mxGeometry>
        </mxCell>
        <mxCell id="6mtPISPLq_UKG5OA48RJ-6" value="iceberg/TableOperations" style="html=1;whiteSpace=wrap;" vertex="1" parent="1">
          <mxGeometry x="580" y="450" width="210" height="50" as="geometry" />
        </mxCell>
        <mxCell id="6mtPISPLq_UKG5OA48RJ-7" value="Database" style="html=1;whiteSpace=wrap;" vertex="1" parent="1">
          <mxGeometry x="335" y="700" width="110" height="50" as="geometry" />
        </mxCell>
        <mxCell id="6mtPISPLq_UKG5OA48RJ-16" value="TableMetadataListener" style="html=1;whiteSpace=wrap;strokeColor=#FF1C95;" vertex="1" parent="1">
          <mxGeometry x="-80" y="600" width="180" height="50" as="geometry" />
        </mxCell>
      </root>
    </mxGraphModel>
  </diagram>
</mxfile>
